<?xml version="1.0" encoding="UTF-8" standalone="no"?>
<!DOCTYPE svg PUBLIC "-//W3C//DTD SVG 1.1//EN" "http://www.w3.org/Graphics/SVG/1.1/DTD/svg11.dtd">
<svg width="100%" height="100%" viewBox="0 0 50 50" version="1.1" xmlns="http://www.w3.org/2000/svg" xmlns:xlink="http://www.w3.org/1999/xlink" xml:space="preserve" xmlns:serif="http://www.serif.com/" style="fill-rule:evenodd;clip-rule:evenodd;stroke-linejoin:round;stroke-miterlimit:2;">
    <g transform="matrix(0.0976562,0,0,0.0976562,0,0)">
        <g>
            <path d="M256,475.802C251.858,475.802 248.5,479.16 248.5,483.302L248.5,504.5C248.5,508.642 251.858,512 256,512C260.142,512 263.5,508.642 263.5,504.5L263.5,483.302C263.5,479.16 260.142,475.802 256,475.802Z" style="fill:rgb(215,168,58);fill-rule:nonzero;"/>
            <path d="M340.396,458.679C338.325,455.092 333.738,453.863 330.151,455.934C326.564,458.005 325.335,462.592 327.406,466.179L338.005,484.537C339.394,486.943 341.915,488.288 344.507,488.288C345.779,488.288 347.069,487.964 348.25,487.282C351.837,485.211 353.066,480.624 350.995,477.037L340.396,458.679Z" style="fill:rgb(215,168,58);fill-rule:nonzero;"/>
            <path d="M124.821,243.104L106.463,232.505C102.876,230.433 98.289,231.663 96.218,235.25C94.147,238.837 95.376,243.424 98.963,245.495L117.321,256.094C118.502,256.776 119.792,257.1 121.064,257.1C123.656,257.1 126.177,255.754 127.566,253.349C129.638,249.761 128.408,245.174 124.821,243.104Z" style="fill:rgb(215,168,58);fill-rule:nonzero;"/>
            <path d="M413.037,409.505L394.679,398.906C391.091,396.833 386.504,398.064 384.434,401.651C382.363,405.238 383.592,409.825 387.179,411.896L405.537,422.495C406.718,423.177 408.008,423.501 409.28,423.501C411.872,423.501 414.393,422.155 415.782,419.75C417.853,416.163 416.624,411.576 413.037,409.505Z" style="fill:rgb(215,168,58);fill-rule:nonzero;"/>
            <path d="M107.698,327.5C107.698,323.358 104.34,320 100.198,320L79,320C74.858,320 71.5,323.358 71.5,327.5C71.5,331.642 74.858,335 79,335L100.198,335C104.34,335 107.698,331.642 107.698,327.5Z" style="fill:rgb(215,168,58);fill-rule:nonzero;"/>
            <path d="M433,320L411.802,320C407.66,320 404.302,323.358 404.302,327.5C404.302,331.642 407.66,335 411.802,335L433,335C437.142,335 440.5,331.642 440.5,327.5C440.5,323.358 437.142,320 433,320Z" style="fill:rgb(215,168,58);fill-rule:nonzero;"/>
            <path d="M117.321,398.906L98.963,409.505C95.376,411.576 94.147,416.163 96.218,419.75C97.607,422.156 100.128,423.501 102.72,423.501C103.992,423.501 105.282,423.177 106.463,422.495L124.821,411.896C128.408,409.825 129.637,405.238 127.566,401.651C125.495,398.064 120.908,396.834 117.321,398.906Z" style="fill:rgb(215,168,58);fill-rule:nonzero;"/>
            <path d="M390.936,257.1C392.208,257.1 393.498,256.776 394.679,256.094L413.037,245.495C416.624,243.424 417.853,238.837 415.782,235.25C413.711,231.663 409.125,230.434 405.537,232.505L387.179,243.104C383.592,245.175 382.363,249.762 384.434,253.349C385.823,255.755 388.344,257.1 390.936,257.1Z" style="fill:rgb(215,168,58);fill-rule:nonzero;"/>
            <path d="M181.849,455.934C178.262,453.862 173.675,455.092 171.604,458.679L161.005,477.037C158.934,480.624 160.163,485.211 163.75,487.282C164.931,487.964 166.221,488.288 167.493,488.288C170.085,488.288 172.606,486.942 173.995,484.537L184.594,466.179C186.665,462.591 185.436,458.004 181.849,455.934Z" style="fill:rgb(215,168,58);fill-rule:nonzero;"/>
        </g>
        <path d="M256,0C251.858,0 248.5,3.358 248.5,7.5L248.5,189.58C248.5,193.722 251.858,197.08 256,197.08C260.142,197.08 263.5,193.722 263.5,189.58L263.5,7.5C263.5,3.358 260.142,0 256,0Z" style="fill:rgb(122,109,121);fill-rule:nonzero;"/>
        <path d="M316,283.267L316,311.579L196,311.579L196,283.267C196,273.128 198.141,263.104 202.282,253.849L206.166,245.169C210.307,235.915 212.448,225.89 212.448,215.751C212.448,201.296 224.166,189.578 238.621,189.578L273.378,189.578C287.833,189.578 299.551,201.296 299.551,215.751C299.551,225.89 301.692,235.914 305.833,245.169L309.717,253.849C313.859,263.104 316,273.129 316,283.267Z" style="fill:rgb(168,211,216);fill-rule:nonzero;"/>
        <path d="M309.718,253.85L305.834,245.17C301.693,235.916 299.552,225.891 299.552,215.752C299.552,201.297 287.834,189.579 273.379,189.579L243.379,189.579C257.834,189.579 269.552,201.297 269.552,215.752C269.552,225.891 271.693,235.915 275.834,245.17L279.718,253.85C283.859,263.104 286,273.129 286,283.268L286,311.58L316,311.58L316,283.268C316,273.129 313.859,263.104 309.718,253.85Z" style="fill:rgb(142,186,197);fill-rule:nonzero;"/>
        <path d="M266.818,421.401L245.182,421.401C199.223,421.401 161.965,384.144 161.965,338.184C161.965,292.225 199.222,254.967 245.182,254.967L266.818,254.967C312.777,254.967 350.035,292.224 350.035,338.184C350.035,384.144 312.777,421.401 266.818,421.401Z" style="fill:rgb(228,195,121);fill-rule:nonzero;"/>
        <path d="M266.818,254.968L245.182,254.968C243.779,254.968 242.386,255.005 241,255.074C285.016,257.253 320.035,293.628 320.035,338.185C320.035,382.742 285.016,419.117 241,421.296C242.385,421.365 243.779,421.402 245.182,421.402L266.818,421.402C312.777,421.402 350.035,384.145 350.035,338.185C350.035,292.225 312.777,254.968 266.818,254.968Z" style="fill:rgb(215,168,58);fill-rule:nonzero;"/>
    </g>
</svg>
